<svg width="8" height="10" viewBox="0 0 8 10" fill="none" xmlns="http://www.w3.org/2000/svg">
<path d="M7.4784 8.87923C7.29836 9.05925 7.05419 9.16038 6.7996 9.16038C6.545 9.16038 6.30083 9.05925 6.1208 8.87923L4 6.45523L1.8792 8.87843C1.79032 8.96876 1.68444 9.04061 1.56766 9.08982C1.45087 9.13903 1.3255 9.16463 1.19878 9.16515C1.07205 9.16566 0.946479 9.14108 0.8293 9.09283C0.712121 9.04457 0.605657 8.97359 0.516047 8.88398C0.426438 8.79437 0.355457 8.6879 0.307199 8.57073C0.258942 8.45355 0.234362 8.32797 0.234878 8.20125C0.235394 8.07452 0.260995 7.94915 0.310206 7.83237C0.359416 7.71559 0.431262 7.6097 0.521598 7.52083L2.728 5.00083L0.520798 2.47923C0.430462 2.39035 0.358616 2.28447 0.309406 2.16769C0.260195 2.0509 0.234594 1.92553 0.234078 1.79881C0.233562 1.67208 0.258142 1.54651 0.306399 1.42933C0.354657 1.31215 0.425638 1.20569 0.515247 1.11608C0.604857 1.02647 0.711321 0.955487 0.8285 0.90723C0.945679 0.858972 1.07125 0.834392 1.19798 0.834908C1.3247 0.835424 1.45007 0.861025 1.56686 0.910236C1.68364 0.959446 1.78952 1.03129 1.8784 1.12163L4 3.54643L6.1208 1.12163C6.20967 1.03129 6.31556 0.959446 6.43234 0.910236C6.54912 0.861025 6.67449 0.835424 6.80122 0.834908C6.92794 0.834392 7.05352 0.858972 7.1707 0.90723C7.28787 0.955487 7.39434 1.02647 7.48395 1.11608C7.57356 1.20569 7.64454 1.31215 7.6928 1.42933C7.74105 1.54651 7.76563 1.67208 7.76512 1.79881C7.7646 1.92553 7.739 2.0509 7.68979 2.16769C7.64058 2.28447 7.56873 2.39035 7.4784 2.47923L5.272 5.00083L7.4784 7.52083C7.56765 7.60999 7.63846 7.71586 7.68677 7.83241C7.73509 7.94895 7.75995 8.07387 7.75995 8.20003C7.75995 8.32619 7.73509 8.45111 7.68677 8.56765C7.63846 8.68419 7.56765 8.79007 7.4784 8.87923Z" fill="#191414"/>
</svg>
